<mxfile host="65bd71144e" modified="2020-12-30T03:50:11.122Z" agent="5.0 (Macintosh; Intel Mac OS X 10_12_3) AppleWebKit/537.36 (KHTML, like Gecko) Code/1.46.0 Chrome/78.0.3904.130 Electron/7.3.1 Safari/537.36" etag="uQjNvl9XHr7ZnYwrI54z" version="13.10.0" type="embed">
    <diagram id="o2PgpiRa9J-cdl4JXogJ" name="第 1 页">
        <mxGraphModel dx="878" dy="742" grid="1" gridSize="10" guides="1" tooltips="1" connect="1" arrows="1" fold="1" page="1" pageScale="1" pageWidth="827" pageHeight="1169" math="0" shadow="0">
            <root>
                <mxCell id="0"/>
                <object label="read-after-write-should-ok" id="1">
                    <mxCell parent="0" visible="0"/>
                </object>
                <mxCell id="foPTA1viyiGtjUkJl8jo-63" value="mem buffer" style="rounded=1;whiteSpace=wrap;html=1;shadow=1;fillColor=#FF3333;strokeColor=none;" parent="1" vertex="1">
                    <mxGeometry x="260" y="320" width="320" height="40" as="geometry"/>
                </mxCell>
                <mxCell id="5EhWtXGdjVQzzrtrHF21-1" value="" style="endArrow=classic;html=1;shadow=1;" parent="1" edge="1">
                    <mxGeometry width="50" height="50" relative="1" as="geometry">
                        <mxPoint x="30" y="180" as="sourcePoint"/>
                        <mxPoint x="640" y="180" as="targetPoint"/>
                    </mxGeometry>
                </mxCell>
                <mxCell id="5EhWtXGdjVQzzrtrHF21-4" value="" style="endArrow=classic;html=1;shadow=1;" parent="1" edge="1">
                    <mxGeometry width="50" height="50" relative="1" as="geometry">
                        <mxPoint x="140" y="190" as="sourcePoint"/>
                        <mxPoint x="140" y="250" as="targetPoint"/>
                    </mxGeometry>
                </mxCell>
                <mxCell id="5EhWtXGdjVQzzrtrHF21-5" value="write BGN" style="text;html=1;strokeColor=none;fillColor=none;align=center;verticalAlign=middle;whiteSpace=wrap;rounded=0;shadow=1;" parent="1" vertex="1">
                    <mxGeometry x="100" y="260" width="90" height="20" as="geometry"/>
                </mxCell>
                <mxCell id="5EhWtXGdjVQzzrtrHF21-6" value="write FIN" style="text;html=1;strokeColor=none;fillColor=none;align=center;verticalAlign=middle;whiteSpace=wrap;rounded=0;shadow=1;" parent="1" vertex="1">
                    <mxGeometry x="280" y="260" width="90" height="20" as="geometry"/>
                </mxCell>
                <mxCell id="5EhWtXGdjVQzzrtrHF21-7" value="" style="endArrow=classic;html=1;shadow=1;" parent="1" edge="1">
                    <mxGeometry width="50" height="50" relative="1" as="geometry">
                        <mxPoint x="330" y="200" as="sourcePoint"/>
                        <mxPoint x="330" y="260" as="targetPoint"/>
                    </mxGeometry>
                </mxCell>
                <mxCell id="5EhWtXGdjVQzzrtrHF21-10" value="P1" style="text;html=1;strokeColor=none;fillColor=none;align=center;verticalAlign=middle;whiteSpace=wrap;rounded=0;shadow=1;" parent="1" vertex="1">
                    <mxGeometry x="100" y="200" width="40" height="20" as="geometry"/>
                </mxCell>
                <mxCell id="5EhWtXGdjVQzzrtrHF21-13" value="P1" style="text;html=1;strokeColor=none;fillColor=none;align=center;verticalAlign=middle;whiteSpace=wrap;rounded=0;shadow=1;" parent="1" vertex="1">
                    <mxGeometry x="320" y="210" width="40" height="20" as="geometry"/>
                </mxCell>
                <mxCell id="5EhWtXGdjVQzzrtrHF21-15" value="time" style="text;html=1;strokeColor=none;fillColor=none;align=center;verticalAlign=middle;whiteSpace=wrap;rounded=0;shadow=1;" parent="1" vertex="1">
                    <mxGeometry x="670" y="170" width="40" height="20" as="geometry"/>
                </mxCell>
                <mxCell id="foPTA1viyiGtjUkJl8jo-15" value="" style="endArrow=classic;html=1;shadow=1;" parent="1" edge="1">
                    <mxGeometry width="50" height="50" relative="1" as="geometry">
                        <mxPoint x="450" y="270" as="sourcePoint"/>
                        <mxPoint x="450" y="190" as="targetPoint"/>
                    </mxGeometry>
                </mxCell>
                <mxCell id="foPTA1viyiGtjUkJl8jo-16" value="read BGN" style="text;html=1;strokeColor=none;fillColor=none;align=center;verticalAlign=middle;whiteSpace=wrap;rounded=0;shadow=1;" parent="1" vertex="1">
                    <mxGeometry x="414" y="290" width="86" height="20" as="geometry"/>
                </mxCell>
                <mxCell id="foPTA1viyiGtjUkJl8jo-17" value="" style="endArrow=classic;html=1;shadow=1;" parent="1" edge="1">
                    <mxGeometry width="50" height="50" relative="1" as="geometry">
                        <mxPoint x="522.5" y="270" as="sourcePoint"/>
                        <mxPoint x="522.5" y="190" as="targetPoint"/>
                    </mxGeometry>
                </mxCell>
                <mxCell id="foPTA1viyiGtjUkJl8jo-18" value="read FIN" style="text;html=1;strokeColor=none;fillColor=none;align=center;verticalAlign=middle;whiteSpace=wrap;rounded=0;shadow=1;" parent="1" vertex="1">
                    <mxGeometry x="480" y="290" width="86" height="20" as="geometry"/>
                </mxCell>
                <mxCell id="foPTA1viyiGtjUkJl8jo-61" value="score=99" style="text;html=1;strokeColor=none;fillColor=none;align=center;verticalAlign=middle;whiteSpace=wrap;rounded=0;shadow=1;" parent="1" vertex="1">
                    <mxGeometry x="310" y="330" width="60" height="20" as="geometry"/>
                </mxCell>
                <mxCell id="foPTA1viyiGtjUkJl8jo-62" value="assert(score==99) OK" style="text;html=1;strokeColor=none;fillColor=none;align=center;verticalAlign=middle;whiteSpace=wrap;rounded=0;shadow=1;" parent="1" vertex="1">
                    <mxGeometry x="580" y="270" width="160" height="20" as="geometry"/>
                </mxCell>
                <mxCell id="foPTA1viyiGtjUkJl8jo-64" value="P1" style="text;html=1;strokeColor=none;fillColor=none;align=center;verticalAlign=middle;whiteSpace=wrap;rounded=0;shadow=1;" parent="1" vertex="1">
                    <mxGeometry x="460" y="210" width="40" height="20" as="geometry"/>
                </mxCell>
                <mxCell id="foPTA1viyiGtjUkJl8jo-65" value="P1" style="text;html=1;strokeColor=none;fillColor=none;align=center;verticalAlign=middle;whiteSpace=wrap;rounded=0;shadow=1;" parent="1" vertex="1">
                    <mxGeometry x="526" y="210" width="40" height="20" as="geometry"/>
                </mxCell>
                <object label="crash" id="foPTA1viyiGtjUkJl8jo-53">
                    <mxCell parent="0" visible="0"/>
                </object>
                <mxCell id="foPTA1viyiGtjUkJl8jo-67" value="&lt;font color=&quot;#ff3333&quot;&gt;crash then reboot&lt;/font&gt;" style="text;html=1;strokeColor=none;fillColor=none;align=center;verticalAlign=middle;whiteSpace=wrap;rounded=0;shadow=1;" parent="foPTA1viyiGtjUkJl8jo-53" vertex="1">
                    <mxGeometry x="300" y="290" width="150" height="20" as="geometry"/>
                </mxCell>
                <mxCell id="OvICahejj3wmQVf5AEvj-62" value="" style="endArrow=classic;html=1;shadow=1;" parent="foPTA1viyiGtjUkJl8jo-53" edge="1">
                    <mxGeometry width="50" height="50" relative="1" as="geometry">
                        <mxPoint x="380" y="270" as="sourcePoint"/>
                        <mxPoint x="380" y="190" as="targetPoint"/>
                    </mxGeometry>
                </mxCell>
                <object label="wal" id="OvICahejj3wmQVf5AEvj-21">
                    <mxCell parent="0" visible="0"/>
                </object>
                <mxCell id="OvICahejj3wmQVf5AEvj-22" value="WAL buffer" style="rounded=1;whiteSpace=wrap;html=1;shadow=1;fillColor=#E6F7FC;" parent="OvICahejj3wmQVf5AEvj-21" vertex="1">
                    <mxGeometry x="170" y="330" width="80" height="20" as="geometry"/>
                </mxCell>
                <mxCell id="OvICahejj3wmQVf5AEvj-24" value="" style="endArrow=classic;html=1;shadow=1;" parent="OvICahejj3wmQVf5AEvj-21" edge="1">
                    <mxGeometry width="50" height="50" relative="1" as="geometry">
                        <mxPoint x="209.5" y="250" as="sourcePoint"/>
                        <mxPoint x="209.5" y="310" as="targetPoint"/>
                    </mxGeometry>
                </mxCell>
                <mxCell id="OvICahejj3wmQVf5AEvj-25" value="disk" style="rounded=1;whiteSpace=wrap;html=1;strokeColor=none;shadow=1;fillColor=#E6F7FC;" parent="OvICahejj3wmQVf5AEvj-21" vertex="1">
                    <mxGeometry x="20" y="410" width="790" height="90" as="geometry"/>
                </mxCell>
                <mxCell id="OvICahejj3wmQVf5AEvj-26" value="WAL" style="rounded=1;whiteSpace=wrap;html=1;shadow=1;strokeColor=none;fillColor=#00A0FD;" parent="OvICahejj3wmQVf5AEvj-21" vertex="1">
                    <mxGeometry x="30" y="430" width="50" height="50" as="geometry"/>
                </mxCell>
                <mxCell id="OvICahejj3wmQVf5AEvj-27" value="WAL" style="rounded=1;whiteSpace=wrap;html=1;shadow=1;strokeColor=none;fillColor=#00A0FD;" parent="OvICahejj3wmQVf5AEvj-21" vertex="1">
                    <mxGeometry x="130" y="430" width="50" height="50" as="geometry"/>
                </mxCell>
                <mxCell id="OvICahejj3wmQVf5AEvj-28" value="score=99" style="rounded=1;whiteSpace=wrap;html=1;shadow=1;strokeColor=none;fillColor=#00A0FD;" parent="OvICahejj3wmQVf5AEvj-21" vertex="1">
                    <mxGeometry x="180" y="430" width="60" height="50" as="geometry"/>
                </mxCell>
                <mxCell id="OvICahejj3wmQVf5AEvj-29" value="" style="rounded=1;whiteSpace=wrap;html=1;fillColor=#00A0FD;" parent="OvICahejj3wmQVf5AEvj-21" vertex="1">
                    <mxGeometry x="471" y="425" width="319" height="65" as="geometry"/>
                </mxCell>
                <mxCell id="OvICahejj3wmQVf5AEvj-30" value="Page1" style="rounded=1;whiteSpace=wrap;html=1;fillColor=#00A0FD;" parent="OvICahejj3wmQVf5AEvj-21" vertex="1">
                    <mxGeometry x="493" y="436.5" width="60" height="37" as="geometry"/>
                </mxCell>
                <mxCell id="OvICahejj3wmQVf5AEvj-31" value="Page2" style="rounded=1;whiteSpace=wrap;html=1;fillColor=#00A0FD;" parent="OvICahejj3wmQVf5AEvj-21" vertex="1">
                    <mxGeometry x="600.5" y="436.5" width="60" height="37" as="geometry"/>
                </mxCell>
                <mxCell id="OvICahejj3wmQVf5AEvj-32" value="Page3" style="rounded=1;whiteSpace=wrap;html=1;fillColor=#00A0FD;" parent="OvICahejj3wmQVf5AEvj-21" vertex="1">
                    <mxGeometry x="710" y="436.5" width="60" height="37" as="geometry"/>
                </mxCell>
                <mxCell id="OvICahejj3wmQVf5AEvj-33" value="" style="edgeStyle=orthogonalEdgeStyle;rounded=0;orthogonalLoop=1;jettySize=auto;html=1;strokeColor=#FFFFFF;" parent="OvICahejj3wmQVf5AEvj-21" source="OvICahejj3wmQVf5AEvj-34" target="OvICahejj3wmQVf5AEvj-29" edge="1">
                    <mxGeometry relative="1" as="geometry"/>
                </mxCell>
                <mxCell id="OvICahejj3wmQVf5AEvj-34" value="write dirty&amp;nbsp;periodically" style="text;html=1;strokeColor=none;fillColor=none;align=center;verticalAlign=middle;whiteSpace=wrap;rounded=0;" parent="OvICahejj3wmQVf5AEvj-21" vertex="1">
                    <mxGeometry x="553" y="380" width="160" height="20" as="geometry"/>
                </mxCell>
                <mxCell id="OvICahejj3wmQVf5AEvj-35" value="write wal" style="text;html=1;strokeColor=none;fillColor=none;align=center;verticalAlign=middle;whiteSpace=wrap;rounded=0;" parent="OvICahejj3wmQVf5AEvj-21" vertex="1">
                    <mxGeometry x="130" y="380" width="90" height="20" as="geometry"/>
                </mxCell>
                <mxCell id="OvICahejj3wmQVf5AEvj-36" value="" style="endArrow=classic;html=1;shadow=1;" parent="OvICahejj3wmQVf5AEvj-21" edge="1">
                    <mxGeometry width="50" height="50" relative="1" as="geometry">
                        <mxPoint x="413" y="410" as="sourcePoint"/>
                        <mxPoint x="413" y="370" as="targetPoint"/>
                    </mxGeometry>
                </mxCell>
                <mxCell id="OvICahejj3wmQVf5AEvj-37" value="replay WAL" style="text;html=1;strokeColor=none;fillColor=none;align=center;verticalAlign=middle;whiteSpace=wrap;rounded=0;shadow=1;" parent="OvICahejj3wmQVf5AEvj-21" vertex="1">
                    <mxGeometry x="420" y="380" width="80" height="20" as="geometry"/>
                </mxCell>
                <mxCell id="OvICahejj3wmQVf5AEvj-38" value="WAL" style="rounded=1;whiteSpace=wrap;html=1;shadow=1;strokeColor=none;fillColor=#00A0FD;" parent="OvICahejj3wmQVf5AEvj-21" vertex="1">
                    <mxGeometry x="80" y="430" width="50" height="50" as="geometry"/>
                </mxCell>
                <mxCell id="OvICahejj3wmQVf5AEvj-39" value="" style="endArrow=classic;html=1;shadow=1;" parent="OvICahejj3wmQVf5AEvj-21" edge="1">
                    <mxGeometry width="50" height="50" relative="1" as="geometry">
                        <mxPoint x="553" y="365" as="sourcePoint"/>
                        <mxPoint x="553" y="425" as="targetPoint"/>
                    </mxGeometry>
                </mxCell>
                <mxCell id="OvICahejj3wmQVf5AEvj-40" value="" style="endArrow=classic;html=1;shadow=1;" parent="OvICahejj3wmQVf5AEvj-21" edge="1">
                    <mxGeometry width="50" height="50" relative="1" as="geometry">
                        <mxPoint x="209" y="365" as="sourcePoint"/>
                        <mxPoint x="209" y="425" as="targetPoint"/>
                    </mxGeometry>
                </mxCell>
                <mxCell id="OvICahejj3wmQVf5AEvj-48" value="write buffer" style="text;html=1;strokeColor=none;fillColor=none;align=center;verticalAlign=middle;whiteSpace=wrap;rounded=0;" parent="OvICahejj3wmQVf5AEvj-21" vertex="1">
                    <mxGeometry x="240" y="290" width="90" height="20" as="geometry"/>
                </mxCell>
                <mxCell id="OvICahejj3wmQVf5AEvj-49" value="" style="endArrow=classic;html=1;shadow=1;" parent="OvICahejj3wmQVf5AEvj-21" edge="1">
                    <mxGeometry width="50" height="50" relative="1" as="geometry">
                        <mxPoint x="290" y="230" as="sourcePoint"/>
                        <mxPoint x="290" y="290" as="targetPoint"/>
                    </mxGeometry>
                </mxCell>
                <object label="concurrency" id="OvICahejj3wmQVf5AEvj-42">
                    <mxCell parent="0" visible="0"/>
                </object>
                <mxCell id="OvICahejj3wmQVf5AEvj-63" value="" style="endArrow=classic;html=1;shadow=1;sketch=0;" parent="OvICahejj3wmQVf5AEvj-42" edge="1">
                    <mxGeometry width="50" height="50" relative="1" as="geometry">
                        <mxPoint x="250" y="180" as="sourcePoint"/>
                        <mxPoint x="250" y="110" as="targetPoint"/>
                    </mxGeometry>
                </mxCell>
                <mxCell id="OvICahejj3wmQVf5AEvj-64" value="P3 read" style="text;html=1;fillColor=none;align=center;verticalAlign=middle;whiteSpace=wrap;rounded=0;shadow=1;sketch=0;strokeColor=#000000;" parent="OvICahejj3wmQVf5AEvj-42" vertex="1">
                    <mxGeometry x="190" y="140" width="50" height="20" as="geometry"/>
                </mxCell>
                <mxCell id="OvICahejj3wmQVf5AEvj-67" value="P2 read" style="text;html=1;fillColor=none;align=center;verticalAlign=middle;whiteSpace=wrap;rounded=0;shadow=1;sketch=0;strokeColor=#000000;" parent="OvICahejj3wmQVf5AEvj-42" vertex="1">
                    <mxGeometry x="20" y="130" width="50" height="20" as="geometry"/>
                </mxCell>
                <mxCell id="OvICahejj3wmQVf5AEvj-68" value="P5 read" style="text;html=1;fillColor=none;align=center;verticalAlign=middle;whiteSpace=wrap;rounded=0;shadow=1;sketch=0;strokeColor=#000000;" parent="OvICahejj3wmQVf5AEvj-42" vertex="1">
                    <mxGeometry x="380" y="130" width="50" height="20" as="geometry"/>
                </mxCell>
                <mxCell id="OvICahejj3wmQVf5AEvj-69" value="" style="endArrow=classic;html=1;shadow=1;sketch=0;" parent="OvICahejj3wmQVf5AEvj-42" edge="1">
                    <mxGeometry width="50" height="50" relative="1" as="geometry">
                        <mxPoint x="369" y="175" as="sourcePoint"/>
                        <mxPoint x="369" y="105" as="targetPoint"/>
                    </mxGeometry>
                </mxCell>
                <mxCell id="OvICahejj3wmQVf5AEvj-70" value="" style="endArrow=classic;html=1;shadow=1;sketch=0;" parent="OvICahejj3wmQVf5AEvj-42" edge="1">
                    <mxGeometry width="50" height="50" relative="1" as="geometry">
                        <mxPoint x="80" y="170" as="sourcePoint"/>
                        <mxPoint x="80" y="100" as="targetPoint"/>
                    </mxGeometry>
                </mxCell>
                <object label="crash_when_concurrency" id="OvICahejj3wmQVf5AEvj-71">
                    <mxCell parent="0" visible="0"/>
                </object>
                <mxCell id="OvICahejj3wmQVf5AEvj-72" value="&lt;font color=&quot;#ff3333&quot;&gt;crash then reboot&lt;/font&gt;" style="text;html=1;strokeColor=none;fillColor=none;align=center;verticalAlign=middle;whiteSpace=wrap;rounded=0;shadow=1;" parent="OvICahejj3wmQVf5AEvj-71" vertex="1">
                    <mxGeometry x="190" y="50" width="150" height="20" as="geometry"/>
                </mxCell>
                <mxCell id="OvICahejj3wmQVf5AEvj-73" value="" style="endArrow=classic;html=1;shadow=1;" parent="OvICahejj3wmQVf5AEvj-71" edge="1">
                    <mxGeometry width="50" height="50" relative="1" as="geometry">
                        <mxPoint x="270" y="170" as="sourcePoint"/>
                        <mxPoint x="270" y="90" as="targetPoint"/>
                    </mxGeometry>
                </mxCell>
            </root>
        </mxGraphModel>
    </diagram>
</mxfile>